<svg width="16" height="16" viewBox="0 0 16 16" fill="none" xmlns="http://www.w3.org/2000/svg">
<path d="M13.5974 11.5486V6.95765C13.5968 5.73566 13.1843 4.54956 12.4266 3.59085C11.6688 2.63213 10.6101 1.95677 9.42135 1.67378V1.27039C9.42135 0.933461 9.28751 0.610332 9.04927 0.372088C8.81102 0.133844 8.48789 0 8.15096 0C7.81403 0 7.49091 0.133844 7.25266 0.372088C7.01442 0.610332 6.88057 0.933461 6.88057 1.27039V1.6787C5.69596 1.96496 4.64194 2.64109 3.88784 3.59848C3.13374 4.55587 2.72332 5.73894 2.72252 6.95765V11.5486L1 13.2711V14.0668H15.3199V13.2711L13.5974 11.5486Z" fill="#EDD556"/>
<path d="M6.24593 14.0669C6.24223 14.3194 6.28877 14.5701 6.38284 14.8045C6.47691 15.0389 6.61664 15.2522 6.7939 15.4321C6.97116 15.612 7.18241 15.7548 7.41538 15.8523C7.64834 15.9498 7.89836 16 8.1509 16C8.40345 16 8.65347 15.9498 8.88643 15.8523C9.11939 15.7548 9.33065 15.612 9.50791 15.4321C9.68517 15.2522 9.82489 15.0389 9.91897 14.8045C10.013 14.5701 10.0596 14.3194 10.0559 14.0669" fill="#EDD556"/>
</svg>
