<svg width="16" height="16" viewBox="0 0 16 16" fill="none" xmlns="http://www.w3.org/2000/svg">
<g clip-path="url(#clip0_82_127)">
<path d="M1.8282 15.937C1.52883 15.8581 1.27045 15.742 1.03214 15.5794C0.831017 15.4421 0.537017 15.1582 0.425204 14.9934C0.288642 14.792 0.131704 14.4473 0.0677043 14.2081C0.0024543 13.9642 0.0014543 13.8671 0.000204299 8.01226C-0.000920701 2.18707 0.000391804 2.05895 0.0643293 1.80864C0.290517 0.923324 0.990829 0.249761 1.89408 0.0487614C2.15377 -0.00898862 13.755 -0.0190511 14.0351 0.0381364C14.7936 0.193324 15.3897 0.649386 15.7346 1.33845C16.0089 1.88626 15.9844 1.28345 15.997 7.78751C16.005 11.9258 15.9976 13.6631 15.9712 13.8796C15.8477 14.8924 15.1503 15.678 14.1468 15.9347C13.8901 16.0003 13.8008 16.0013 7.97252 15.9995C2.33727 15.9978 2.04789 15.9949 1.8282 15.937Z" fill="#F06A35"/>
<path d="M10.2712 12.9046C10.9881 12.8068 11.5498 12.5194 12.0768 11.9811C12.4581 11.5916 12.6967 11.17 12.8527 10.6104C12.9175 10.378 12.9229 10.2648 12.9348 8.90014C12.9438 7.87007 12.9363 7.38764 12.9095 7.26589C12.8706 7.08932 12.7604 6.92539 12.6346 6.85707C12.5959 6.83601 12.348 6.8092 12.0837 6.79751C11.6408 6.77782 11.5912 6.7692 11.4515 6.68726C11.2297 6.55726 11.1686 6.41701 11.168 6.03601C11.1668 5.30807 10.8639 4.63226 10.2654 4.02226C9.83895 3.58776 9.36327 3.29364 8.82039 3.12882C8.69039 3.08932 8.39933 3.07589 7.42458 3.06445C5.89508 3.04632 5.55558 3.0777 5.03483 3.28507C4.07483 3.66745 3.38514 4.47326 3.13352 5.50639C3.08627 5.70045 3.07708 6.01139 3.06589 7.79782C3.05195 10.0358 3.06733 10.3644 3.20714 10.8079C3.32277 11.1744 3.43933 11.3989 3.67945 11.7176C4.13695 12.3248 4.82258 12.7633 5.50808 12.8871C5.83433 12.9461 9.85902 12.9608 10.2712 12.9046" fill="white"/>
<path d="M10.1448 9.40233C10.4094 9.64939 10.3536 10.0892 10.0347 10.2698L9.70706 10.3231L7.77337 10.3455C6.46962 10.3577 6.07787 10.332 5.99781 10.3003L5.99531 10.2992C5.83793 10.2306 5.69143 10.0403 5.66612 9.87139C5.642 9.71058 5.72287 9.48952 5.84675 9.37733L5.87431 9.35333C5.99643 9.25302 6.13693 9.23502 7.289 9.23095L8.62131 9.22958C9.96812 9.23058 9.97993 9.24839 10.1448 9.40233ZM8.2465 5.75539C8.45187 5.85914 8.54112 6.00539 8.54112 6.23833C8.54112 6.44058 8.46362 6.58458 8.2915 6.7007L8.25812 6.72202C8.17437 6.77202 8.09225 6.7807 7.44306 6.78577L7.02412 6.78814C6.50481 6.7892 6.10506 6.77833 6.04118 6.7607C5.67468 6.6597 5.53775 6.13389 5.80712 5.86195L5.83218 5.83708C5.97637 5.69739 6.06812 5.68295 6.91293 5.68164L7.54956 5.68214C8.08756 5.68464 8.1305 5.69683 8.2465 5.75539Z" fill="#F06A35"/>
</g>
<defs>
<clipPath id="clip0_82_127">
<rect width="16" height="16" fill="white"/>
</clipPath>
</defs>
</svg>
