<svg width="16" height="16" viewBox="0 0 16 16" fill="none" xmlns="http://www.w3.org/2000/svg">
<path d="M7.99992 1.3335C6.2553 1.33835 4.58181 2.02555 3.33725 3.24816V2.00016C3.33725 1.82335 3.26701 1.65378 3.14199 1.52876C3.01697 1.40373 2.8474 1.3335 2.67059 1.3335C2.49377 1.3335 2.3242 1.40373 2.19918 1.52876C2.07416 1.65378 2.00392 1.82335 2.00392 2.00016V5.00016C2.00392 5.17697 2.07416 5.34654 2.19918 5.47157C2.3242 5.59659 2.49377 5.66683 2.67059 5.66683H5.67058C5.8474 5.66683 6.01697 5.59659 6.14199 5.47157C6.26701 5.34654 6.33725 5.17697 6.33725 5.00016C6.33725 4.82335 6.26701 4.65378 6.14199 4.52876C6.01697 4.40373 5.8474 4.3335 5.67058 4.3335H4.14525C5.00056 3.44083 6.14006 2.87392 7.36796 2.73017C8.59586 2.58641 9.8355 2.87479 10.8739 3.54576C11.9122 4.21672 12.6845 5.22838 13.058 6.4069C13.4315 7.58542 13.3829 8.85723 12.9205 10.0038C12.4581 11.1504 11.6108 12.1001 10.5243 12.6898C9.4377 13.2795 8.17966 13.4724 6.96632 13.2353C5.75298 12.9982 4.6601 12.346 3.87544 11.3906C3.09078 10.4353 2.66335 9.23644 2.66659 8.00016C2.66659 7.82335 2.59635 7.65378 2.47132 7.52876C2.3463 7.40373 2.17673 7.3335 1.99992 7.3335C1.82311 7.3335 1.65354 7.40373 1.52851 7.52876C1.40349 7.65378 1.33325 7.82335 1.33325 8.00016C1.33325 9.3187 1.72425 10.6076 2.45679 11.704C3.18933 12.8003 4.23052 13.6548 5.4487 14.1594C6.66687 14.6639 8.00731 14.796 9.30052 14.5387C10.5937 14.2815 11.7816 13.6466 12.714 12.7142C13.6463 11.7819 14.2813 10.594 14.5385 9.30076C14.7957 8.00756 14.6637 6.66711 14.1591 5.44894C13.6545 4.23077 12.8 3.18957 11.7037 2.45703C10.6074 1.72449 9.31846 1.3335 7.99992 1.3335Z" fill="#5B2AB5"/>
<path d="M9.33325 8.66683H7.99992C7.82311 8.66683 7.65354 8.59659 7.52851 8.47157C7.40349 8.34654 7.33325 8.17697 7.33325 8.00016V6.00016C7.33325 5.82335 7.40349 5.65378 7.52851 5.52876C7.65354 5.40373 7.82311 5.3335 7.99992 5.3335C8.17673 5.3335 8.3463 5.40373 8.47132 5.52876C8.59635 5.65378 8.66659 5.82335 8.66659 6.00016V7.3335H9.33325C9.51006 7.3335 9.67963 7.40373 9.80466 7.52876C9.92968 7.65378 9.99992 7.82335 9.99992 8.00016C9.99992 8.17697 9.92968 8.34654 9.80466 8.47157C9.67963 8.59659 9.51006 8.66683 9.33325 8.66683Z" fill="#5B2AB5"/>
<path opacity="0.5" d="M7.99992 2.6665C7.27806 2.66899 6.56422 2.81798 5.90164 3.10447C5.23906 3.39095 4.64153 3.80896 4.14525 4.33317H5.67059C5.8474 4.33317 6.01697 4.40341 6.14199 4.52843C6.26701 4.65346 6.33725 4.82303 6.33725 4.99984C6.33725 5.17665 6.26701 5.34622 6.14199 5.47124C6.01697 5.59627 5.8474 5.6665 5.67059 5.6665H2.67059C2.50799 5.66538 2.35153 5.60427 2.2312 5.4949C2.11088 5.38553 2.03517 5.23559 2.01859 5.07384C1.56818 5.98349 1.33365 6.98478 1.33325 7.99984C1.33325 7.82303 1.40349 7.65346 1.52851 7.52843C1.65354 7.40341 1.82311 7.33317 1.99992 7.33317C2.17673 7.33317 2.3463 7.40341 2.47132 7.52843C2.59635 7.65346 2.66659 7.82303 2.66659 7.99984C2.66659 9.05467 2.97938 10.0858 3.56541 10.9629C4.15145 11.8399 4.9844 12.5235 5.95894 12.9272C6.93348 13.3309 8.00584 13.4365 9.0404 13.2307C10.075 13.0249 11.0253 12.517 11.7712 11.7711C12.517 11.0252 13.025 10.0749 13.2308 9.04032C13.4366 8.00575 13.3309 6.9334 12.9273 5.95886C12.5236 4.98432 11.84 4.15137 10.963 3.56533C10.0859 2.9793 9.05475 2.6665 7.99992 2.6665ZM9.33325 8.6665H7.99992C7.82311 8.6665 7.65354 8.59627 7.52851 8.47124C7.40349 8.34622 7.33325 8.17665 7.33325 7.99984V5.99984C7.33325 5.82303 7.40349 5.65346 7.52851 5.52843C7.65354 5.40341 7.82311 5.33317 7.99992 5.33317C8.17673 5.33317 8.3463 5.40341 8.47132 5.52843C8.59635 5.65346 8.66659 5.82303 8.66659 5.99984V7.33317H9.33325C9.51006 7.33317 9.67963 7.40341 9.80466 7.52843C9.92968 7.65346 9.99992 7.82303 9.99992 7.99984C9.99992 8.17665 9.92968 8.34622 9.80466 8.47124C9.67963 8.59627 9.51006 8.6665 9.33325 8.6665Z" fill="#6934C6"/>
</svg>
