<svg width="16" height="16" viewBox="0 0 16 16" fill="none" xmlns="http://www.w3.org/2000/svg">
<path d="M12.562 13C13.2142 12.9838 13.8343 12.7133 14.2898 12.2462C14.7453 11.7791 15.0002 11.1524 15 10.5V8C15 7.73478 14.8946 7.48043 14.7071 7.29289C14.5196 7.10536 14.2652 7 14 7H11C10.7348 7 10.4804 7.10536 10.2929 7.29289C10.1054 7.48043 10 7.73478 10 8V10.5C9.9999 10.8336 10.0666 11.1638 10.1961 11.4712C10.3255 11.7787 10.5153 12.0571 10.754 12.2901C10.9928 12.523 11.2757 12.7059 11.5862 12.8278C11.8967 12.9497 12.2285 13.0083 12.562 13Z" fill="url(#paint0_linear_82_116)"/>
<path d="M12.562 13C13.2142 12.9838 13.8343 12.7133 14.2898 12.2462C14.7453 11.7791 15.0002 11.1524 15 10.5V8C15 7.73478 14.8946 7.48043 14.7071 7.29289C14.5196 7.10536 14.2652 7 14 7H11C10.7348 7 10.4804 7.10536 10.2929 7.29289C10.1054 7.48043 10 7.73478 10 8V10.5C9.9999 10.8336 10.0666 11.1638 10.1961 11.4712C10.3255 11.7787 10.5153 12.0571 10.754 12.2901C10.9928 12.523 11.2757 12.7059 11.5862 12.8278C11.8967 12.9497 12.2285 13.0083 12.562 13Z" fill="url(#paint1_radial_82_116)" fill-opacity="0.5"/>
<path d="M3.562 13C4.21424 12.9838 4.83431 12.7133 5.28982 12.2462C5.74534 11.7791 6.0002 11.1524 6 10.5V8C6 7.73478 5.89464 7.48043 5.70711 7.29289C5.51957 7.10536 5.26522 7 5 7H2C1.73478 7 1.48043 7.10536 1.29289 7.29289C1.10536 7.48043 1 7.73478 1 8V10.5C0.999898 10.8336 1.06656 11.1638 1.19605 11.4712C1.32555 11.7787 1.51526 12.0571 1.75402 12.2901C1.99277 12.523 2.27573 12.7059 2.58624 12.8278C2.89675 12.9497 3.22852 13.0083 3.562 13Z" fill="url(#paint2_linear_82_116)"/>
<path d="M3.562 13C4.21424 12.9838 4.83431 12.7133 5.28982 12.2462C5.74534 11.7791 6.0002 11.1524 6 10.5V8C6 7.73478 5.89464 7.48043 5.70711 7.29289C5.51957 7.10536 5.26522 7 5 7H2C1.73478 7 1.48043 7.10536 1.29289 7.29289C1.10536 7.48043 1 7.73478 1 8V10.5C0.999898 10.8336 1.06656 11.1638 1.19605 11.4712C1.32555 11.7787 1.51526 12.0571 1.75402 12.2901C1.99277 12.523 2.27573 12.7059 2.58624 12.8278C2.89675 12.9497 3.22852 13.0083 3.562 13Z" fill="url(#paint3_radial_82_116)" fill-opacity="0.5"/>
<path d="M5 7.993C5.00185 7.729 5.10802 7.47644 5.29536 7.29041C5.48269 7.10439 5.73599 6.99999 6 7H10C10.2652 7 10.5196 7.10536 10.7071 7.29289C10.8946 7.48043 11 7.73478 11 8V11C11.0003 11.3147 10.951 11.6276 10.854 11.927C10.6326 12.6057 10.1764 13.1832 9.56751 13.5559C8.95859 13.9286 8.23675 14.0719 7.53163 13.9603C6.8265 13.8486 6.18428 13.4892 5.72028 12.9467C5.25628 12.4041 5.0009 11.7139 5 11V7.993Z" fill="url(#paint4_linear_82_116)"/>
<path d="M5 7.993C5.00185 7.729 5.10802 7.47644 5.29536 7.29041C5.48269 7.10439 5.73599 6.99999 6 7H10C10.2652 7 10.5196 7.10536 10.7071 7.29289C10.8946 7.48043 11 7.73478 11 8V11C11.0003 11.3147 10.951 11.6276 10.854 11.927C10.6326 12.6057 10.1764 13.1832 9.56751 13.5559C8.95859 13.9286 8.23675 14.0719 7.53163 13.9603C6.8265 13.8486 6.18428 13.4892 5.72028 12.9467C5.25628 12.4041 5.0009 11.7139 5 11V7.993Z" fill="url(#paint5_linear_82_116)"/>
<path d="M12.5 3C12.1022 3 11.7206 3.15804 11.4393 3.43934C11.158 3.72064 11 4.10218 11 4.5C11 4.89782 11.158 5.27936 11.4393 5.56066C11.7206 5.84196 12.1022 6 12.5 6C12.8978 6 13.2794 5.84196 13.5607 5.56066C13.842 5.27936 14 4.89782 14 4.5C14 4.10218 13.842 3.72064 13.5607 3.43934C13.2794 3.15804 12.8978 3 12.5 3Z" fill="url(#paint6_linear_82_116)"/>
<path d="M3.5 3C3.10218 3 2.72064 3.15804 2.43934 3.43934C2.15804 3.72064 2 4.10218 2 4.5C2 4.89782 2.15804 5.27936 2.43934 5.56066C2.72064 5.84196 3.10218 6 3.5 6C3.89782 6 4.27936 5.84196 4.56066 5.56066C4.84196 5.27936 5 4.89782 5 4.5C5 4.10218 4.84196 3.72064 4.56066 3.43934C4.27936 3.15804 3.89782 3 3.5 3Z" fill="url(#paint7_linear_82_116)"/>
<path d="M7.99995 2.00195C7.73757 2.00195 7.47776 2.05363 7.23535 2.15404C6.99294 2.25445 6.77269 2.40162 6.58715 2.58715C6.40162 2.77269 6.25445 2.99294 6.15404 3.23535C6.05363 3.47776 6.00195 3.73757 6.00195 3.99995C6.00195 4.26233 6.05363 4.52215 6.15404 4.76455C6.25445 5.00696 6.40162 5.22722 6.58715 5.41275C6.77269 5.59828 6.99294 5.74546 7.23535 5.84586C7.47776 5.94627 7.73757 5.99795 7.99995 5.99795C8.52986 5.99795 9.03805 5.78745 9.41275 5.41275C9.78745 5.03805 9.99795 4.52986 9.99795 3.99995C9.99795 3.47005 9.78745 2.96185 9.41275 2.58715C9.03805 2.21246 8.52986 2.00195 7.99995 2.00195Z" fill="url(#paint8_linear_82_116)"/>
<defs>
<linearGradient id="paint0_linear_82_116" x1="11.189" y1="7.797" x2="14.454" y2="12.142" gradientUnits="userSpaceOnUse">
<stop offset="0.125" stop-color="#7A41DC"/>
<stop offset="1" stop-color="#5B2AB5"/>
</linearGradient>
<radialGradient id="paint1_radial_82_116" cx="0" cy="0" r="1" gradientUnits="userSpaceOnUse" gradientTransform="translate(9.214 9.86) scale(4.02365 8.1916)">
<stop offset="0.433" stop-color="#3B148A"/>
<stop offset="1" stop-color="#3B148A" stop-opacity="0"/>
</radialGradient>
<linearGradient id="paint2_linear_82_116" x1="2.189" y1="7.797" x2="5.454" y2="12.142" gradientUnits="userSpaceOnUse">
<stop offset="0.125" stop-color="#9C6CFE"/>
<stop offset="1" stop-color="#7A41DC"/>
</linearGradient>
<radialGradient id="paint3_radial_82_116" cx="0" cy="0" r="1" gradientUnits="userSpaceOnUse" gradientTransform="translate(7.62 9.86) rotate(180) scale(4.45284 9.06537)">
<stop offset="0.433" stop-color="#3B148A"/>
<stop offset="1" stop-color="#3B148A" stop-opacity="0"/>
</radialGradient>
<linearGradient id="paint4_linear_82_116" x1="6.427" y1="7.93" x2="10.205" y2="13.101" gradientUnits="userSpaceOnUse">
<stop offset="0.125" stop-color="#BD96FF"/>
<stop offset="1" stop-color="#9C6CFE"/>
</linearGradient>
<linearGradient id="paint5_linear_82_116" x1="8" y1="6.166" x2="13.697" y2="15.29" gradientUnits="userSpaceOnUse">
<stop stop-color="#885EDB" stop-opacity="0"/>
<stop offset="1" stop-color="#E362F8"/>
</linearGradient>
<linearGradient id="paint6_linear_82_116" x1="11.713" y1="3.399" x2="13.242" y2="5.84" gradientUnits="userSpaceOnUse">
<stop offset="0.125" stop-color="#7A41DC"/>
<stop offset="1" stop-color="#5B2AB5"/>
</linearGradient>
<linearGradient id="paint7_linear_82_116" x1="2.713" y1="3.399" x2="4.242" y2="5.84" gradientUnits="userSpaceOnUse">
<stop offset="0.125" stop-color="#9C6CFE"/>
<stop offset="1" stop-color="#7A41DC"/>
</linearGradient>
<linearGradient id="paint8_linear_82_116" x1="6.95195" y1="2.53295" x2="8.98895" y2="5.78495" gradientUnits="userSpaceOnUse">
<stop offset="0.125" stop-color="#BD96FF"/>
<stop offset="1" stop-color="#9C6CFE"/>
</linearGradient>
</defs>
</svg>
